<?xml version="1.0" encoding="UTF-8"?>
<svg xmlns="http://www.w3.org/2000/svg" viewBox="0 0 1920 1080">
  <defs>
    <style>
      .cls-1 {
        isolation: isolate;
      }

      .cls-2 {
        fill: #06080c;
        mix-blend-mode: multiply;
      }

      .cls-3 {
        fill: none;
        stroke: #7c99f9;
        stroke-miterlimit: 10;
        stroke-width: 31px;
      }
    </style>
  </defs>
  <g class="cls-1">
    <g id="Layer_1" data-name="Layer 1">
      <rect class="cls-2" x="-80.17" y="-75.1" width="2079.32" height="1233.7"/>
      <g>
        <path class="cls-3" d="M302.13,167.87c-71.19,123.24-235.32,161.71-366.6,85.9C-195.79,177.97-244.54,16.59-173.39-106.68c71.16-123.27,235.29-161.73,366.6-85.93,131.31,75.83,180.07,237.21,108.91,360.47Z"/>
        <path class="cls-3" d="M818.45-328.73c120.68,298.76,59.65,653.69-182.87,895.54-323.34,322.44-846.85,321.73-1169.31-1.62C-763.98,334.29-829.44,1.32-730.32-287.62"/>
        <path class="cls-3" d="M617.92-322.32c92.1,228.01,45.52,498.89-139.57,683.47-246.77,246.09-646.31,245.54-892.41-1.24-175.73-176.22-225.68-430.34-150.04-650.85"/>
      </g>
    </g>
  </g>
</svg>