<?xml version="1.0" encoding="UTF-8"?>
<svg xmlns="http://www.w3.org/2000/svg" viewBox="0 0 1920 1080">
  <defs>
    <style>
      .cls-1 {
        isolation: isolate;
      }

      .cls-2 {
        fill: #06080c;
        mix-blend-mode: multiply;
      }

      .cls-3 {
        fill: none;
        stroke: #7c99f9;
        stroke-miterlimit: 10;
        stroke-width: 31px;
      }
    </style>
  </defs>
  <g class="cls-1">
    <g id="Layer_1" data-name="Layer 1">
      <rect class="cls-2" x="-80.17" y="-75.1" width="2079.32" height="1233.7"/>
      <path class="cls-3" d="M173.35,63.64c-42.35,73.31-139.98,96.19-218.08,51.1C-122.84,69.65-151.84-26.35-109.51-99.68c42.33-73.33,139.97-96.21,218.08-51.12C186.68-105.69,215.68-9.69,173.35,63.64Z"/>
      <path class="cls-3" d="M480.49-231.77c71.79,177.72,35.48,388.86-108.78,532.72-192.34,191.81-503.76,191.38-695.58-.96-136.97-137.35-175.91-335.42-116.95-507.3"/>
      <path class="cls-3" d="M361.21-227.96c54.79,135.64,27.08,296.77-83.02,406.57-146.79,146.39-384.47,146.06-530.86-.74-104.53-104.82-134.25-255.99-89.25-387.17"/>
    </g>
  </g>
</svg>