<?xml version="1.0" encoding="UTF-8"?>
<svg id="Layer_1" data-name="Layer 1" xmlns="http://www.w3.org/2000/svg" viewBox="0 0 598.47 212.43">
  <defs>
    <style>
      .cls-1 {
        stroke-linecap: round;
        stroke-linejoin: round;
      }

      .cls-1, .cls-2 {
        stroke: #fff;
      }

      .cls-1, .cls-2, .cls-3 {
        fill: none;
        stroke-width: 2px;
      }

      .cls-2, .cls-3 {
        stroke-miterlimit: 10;
      }

      .cls-3 {
        stroke: #f2f5ff;
      }
    </style>
  </defs>
  <g>
    <g>
      <g>
        <path class="cls-2" d="M289.82,52.59c-4.04-4.47-9.89-7.29-16.4-7.29-12.19,0-22.08,9.89-22.08,22.08s9.89,22.08,22.08,22.08c6.49,0,12.34-2.8,16.37-7.26"/>
        <polyline class="cls-1" points="294.41 89.47 314.71 44.92 335.5 89.19"/>
        <polyline class="cls-1" points="439.14 90.27 459.44 45.71 480.23 89.99"/>
        <path class="cls-2" d="M347.09,89.47v-15.67h15.28c4.54,0,9.03-1.46,12.43-4.46,2.43-2.15,4.47-5.19,4.5-9.33.02-4.15-1.69-7.13-3.75-9.23-2.8-2.84-6.74-4.27-10.73-4.27h-17.71"/>
        <line class="cls-1" x1="392.96" y1="44.67" x2="392.96" y2="89.47"/>
        <g>
          <line class="cls-1" x1="403.2" y1="45.77" x2="439.14" y2="45.77"/>
          <line class="cls-1" x1="420.74" y1="89.47" x2="420.74" y2="47.06"/>
        </g>
      </g>
      <g>
        <polyline class="cls-1" points="249.38 160.77 269.68 116.22 290.47 160.5"/>
        <path class="cls-1" d="M302.62,138.11v20.91h13.17c9.27,0,18.17-4.66,22.68-12.76,1.52-2.73,2.57-5.87,2.67-9.38.13-4.92-1.76-8.87-4.28-11.93-4.47-5.45-11.37-8.31-18.42-8.31h-17.11"/>
        <polyline class="cls-1" points="347.27 115.11 367.08 158.53 387.56 115.11"/>
        <line class="cls-1" x1="398.54" y1="115.54" x2="398.54" y2="160.31"/>
        <path class="cls-1" d="M440.86,118.79s-4.97-3.99-13.06-3.56c-8.1.43-13.37,4.14-13.37,12.02,0,9.75,13.01,9.52,18.4,11.22,6.99,2.21,9.43,6.56,9.43,9.94,0,7.48-7.06,10.98-13.98,10.98s-15.57-6.01-15.57-6.01"/>
        <path class="cls-1" d="M581.58,118.32s-4.97-3.99-13.06-3.56-13.37,4.14-13.37,12.02c0,9.75,13.01,9.52,18.4,11.22,6.99,2.21,9.43,6.56,9.43,9.94,0,7.48-7.06,10.98-13.98,10.98s-15.57-6.01-15.57-6.01"/>
        <circle class="cls-1" cx="474.34" cy="137.13" r="21.83"/>
        <path class="cls-1" d="M510.16,116.34h18.61c3.64,0,7.26,1.25,9.86,3.8,2.02,1.98,3.69,4.89,3.66,9.14-.02,3.71-1.4,6.59-3.17,8.77-3.03,3.7-7.71,5.64-12.5,5.64h-15.36v16.68"/>
        <line class="cls-1" x1="543.28" y1="160.13" x2="531.13" y2="143.69"/>
      </g>
    </g>
    <line class="cls-1" x1="205.95" y1="30.29" x2="205.95" y2="176.01"/>
  </g>
  <path class="cls-3" d="M110.28,107.28c-2.97,5.14-9.55,6.9-14.69,3.94-5.14-2.97-6.91-9.55-3.94-14.69,2.97-5.14,9.55-6.91,14.69-3.94,5.14,2.97,6.91,9.55,3.94,14.69Z"/>
  <path class="cls-3" d="M130.84,87.25c4.73,11.7,2.34,25.61-7.16,35.08-12.67,12.63-33.17,12.6-45.8-.06-9.02-9.04-11.58-22.09-7.7-33.4"/>
  <path class="cls-3" d="M140.77,58.66c-13.98-19.26-33.8-13.46-39.71-11.16-19.32-8.11-40.16,3.92-44.38,21.08-8.94,36.31-27.77,34.08-27.77,34.08,22.34.96,20.1,25.03,32.9,42.66,13.98,19.26,33.8,13.46,39.71,11.16,19.32,8.11,40.16-3.92,44.38-21.08,8.94-36.31,27.77-34.08,27.77-34.08-22.35-.96-20.1-25.03-32.9-42.66Z"/>
</svg>