<?xml version="1.0" encoding="UTF-8"?>
<svg id="Layer_1" data-name="Layer 1" xmlns="http://www.w3.org/2000/svg" viewBox="0 0 1920 1080">
  <defs>
    <style>
      .cls-1 {
        fill: #041744;
      }

      .cls-2 {
        fill: none;
        stroke: #f2f5ff;
        stroke-miterlimit: 10;
        stroke-width: 21px;
      }
    </style>
  </defs>
  <rect class="cls-1" x="-80.17" y="-75.1" width="2079.32" height="1233.7"/>
  <g>
    <path class="cls-2" d="M41.06,127.26c-12.27,21.25-40.57,27.88-63.21,14.81-22.64-13.07-31.05-40.89-18.78-62.15C-28.66,58.67-.36,52.04,22.28,65.11c22.64,13.07,31.05,40.9,18.78,62.15Z"/>
    <path class="cls-2" d="M130.08,41.64c20.81,51.51,10.28,112.71-31.53,154.4-55.75,55.59-146.01,55.47-201.61-.28-39.7-39.81-50.98-97.22-33.9-147.04"/>
    <path class="cls-2" d="M173.79-84.2C112.27-168.99,25.01-143.47-.99-133.32c-85.02-35.69-176.76,17.23-195.35,92.78-39.34,159.84-122.24,150.01-122.24,150.01,98.35,4.22,88.49,110.16,144.8,187.77C-112.27,382.02-25.01,356.5.99,346.35c85.02,35.69,176.76-17.24,195.35-92.78,39.34-159.84,122.24-150.01,122.24-150.01-98.36-4.22-88.49-110.16-144.8-187.77Z"/>
  </g>
</svg>