<svg width="104" height="36" viewBox="0 0 104 36" fill="none" xmlns="http://www.w3.org/2000/svg">
<path d="M50.3639 8.9123C49.6619 8.15478 48.6453 7.67688 47.514 7.67688C45.3957 7.67688 43.677 9.35292 43.677 11.4187C43.677 13.4845 45.3957 15.1606 47.514 15.1606C48.6418 15.1606 49.6584 14.6861 50.3587 13.9302" stroke="#0038FF" stroke-miterlimit="10"/>
<path d="M51.1615 15.1623L54.6892 7.61248L58.302 15.1148" stroke="#0038FF" stroke-linecap="round" stroke-linejoin="round"/>
<path d="M76.3123 15.2978L79.8399 7.74636L83.4527 15.2504" stroke="#0038FF" stroke-linecap="round" stroke-linejoin="round"/>
<path d="M60.316 15.1623V12.5067H62.9713C63.7603 12.5067 64.5405 12.2593 65.1314 11.7509C65.5537 11.3865 65.9082 10.8713 65.9134 10.1698C65.9169 9.46646 65.6197 8.96145 65.2617 8.60557C64.7751 8.12428 64.0905 7.88194 63.3971 7.88194H60.3195" stroke="#0038FF" stroke-miterlimit="10"/>
<path d="M68.2872 7.57012V15.1623" stroke="#0038FF" stroke-linecap="round" stroke-linejoin="round"/>
<path d="M70.0667 7.75653H76.3122" stroke="#0038FF" stroke-linecap="round" stroke-linejoin="round"/>
<path d="M73.1147 15.1623V7.97515" stroke="#0038FF" stroke-linecap="round" stroke-linejoin="round"/>
<path d="M43.3364 27.2453L46.8641 19.6955L50.4769 27.1996" stroke="#0038FF" stroke-linecap="round" stroke-linejoin="round"/>
<path d="M52.5883 23.4052V26.9487H54.8769C56.4879 26.9487 58.0345 26.159 58.8182 24.7863C59.0823 24.3237 59.2648 23.7916 59.2822 23.1967C59.3048 22.363 58.9763 21.6936 58.5384 21.175C57.7616 20.2514 56.5626 19.7667 55.3375 19.7667H52.3641" stroke="#0038FF" stroke-linecap="round" stroke-linejoin="round"/>
<path d="M60.3474 19.5074L63.7899 26.8657L67.3489 19.5074" stroke="#0038FF" stroke-linecap="round" stroke-linejoin="round"/>
<path d="M69.257 19.5803V27.1674" stroke="#0038FF" stroke-linecap="round" stroke-linejoin="round"/>
<path d="M76.6112 20.1311C76.6112 20.1311 75.7475 19.4549 74.3416 19.5278C72.9341 19.6006 72.0183 20.2294 72.0183 21.5648C72.0183 23.2171 74.2791 23.1781 75.2157 23.4662C76.4304 23.8407 76.8545 24.5779 76.8545 25.1507C76.8545 26.4183 75.6276 27.0114 74.4251 27.0114C73.2225 27.0114 71.7194 25.9929 71.7194 25.9929" stroke="#0038FF" stroke-linecap="round" stroke-linejoin="round"/>
<path d="M101.065 20.0514C101.065 20.0514 100.201 19.3752 98.7954 19.4481C97.3895 19.521 96.472 20.1497 96.472 21.4851C96.472 23.1374 98.7328 23.0984 99.6695 23.3865C100.884 23.7611 101.308 24.4982 101.308 25.071C101.308 26.3387 100.081 26.9318 98.8788 26.9318C97.6763 26.9318 96.1731 25.9133 96.1731 25.9133" stroke="#0038FF" stroke-linecap="round" stroke-linejoin="round"/>
<path d="M82.4292 26.9386C84.5243 26.9386 86.2227 25.2823 86.2227 23.2391C86.2227 21.1959 84.5243 19.5396 82.4292 19.5396C80.334 19.5396 78.6356 21.1959 78.6356 23.2391C78.6356 25.2823 80.334 26.9386 82.4292 26.9386Z" stroke="#0038FF" stroke-linecap="round" stroke-linejoin="round"/>
<path d="M88.6538 19.7159H91.8878C92.5203 19.7159 93.1494 19.9277 93.6012 20.3598C93.9523 20.6954 94.2425 21.1885 94.2372 21.9088C94.2338 22.5375 93.994 23.0256 93.6864 23.395C93.1598 24.022 92.3466 24.3508 91.5142 24.3508H88.845V27.1775" stroke="#0038FF" stroke-linecap="round" stroke-linejoin="round"/>
<path d="M94.4094 27.1369L92.298 24.3508" stroke="#0038FF" stroke-linecap="round" stroke-linejoin="round"/>
<path d="M35.7893 5.13317V29.828" stroke="#0038FF" stroke-linecap="round" stroke-linejoin="round"/>
<path d="M19.164 18.1805C18.6479 19.0515 17.5044 19.3498 16.6112 18.8482C15.718 18.3449 15.4104 17.2298 15.9266 16.3587C16.4427 15.4876 17.5861 15.1877 18.4793 15.691C19.3725 16.1943 19.6801 17.3094 19.164 18.1805Z" stroke="#0038FF" stroke-miterlimit="10"/>
<path d="M22.737 14.786C23.5589 16.7688 23.1436 19.1261 21.4927 20.731C19.291 22.8713 15.7286 22.8663 13.5338 20.7208C11.9663 19.1888 11.5214 16.9773 12.1957 15.0606" stroke="#0038FF" stroke-miterlimit="10"/>
<path d="M24.4626 9.94097C22.0332 6.67702 18.5889 7.65993 17.5619 8.04971C14.2045 6.67533 10.583 8.71402 9.8497 11.6221C8.29614 17.7755 5.02393 17.3975 5.02393 17.3975C8.90609 17.5602 8.51683 21.6393 10.7412 24.627C13.1706 27.891 16.6148 26.9081 17.6418 26.5183C20.9992 27.8927 24.6207 25.854 25.354 22.9459C26.9076 16.7925 30.1798 17.1705 30.1798 17.1705C26.2959 17.0078 26.6869 12.9287 24.4626 9.94097Z" stroke="#0038FF" stroke-miterlimit="10"/>
</svg>
