<svg width="156" height="54" viewBox="0 0 156 54" fill="none" xmlns="http://www.w3.org/2000/svg">
<path d="M75.5458 13.3685C74.4927 12.2322 72.9678 11.5153 71.2709 11.5153C68.0934 11.5153 65.5154 14.0294 65.5154 17.1281C65.5154 20.2268 68.0934 22.7409 71.2709 22.7409C72.9626 22.7409 74.4875 22.0291 75.5379 20.8954" stroke="#191970" stroke-miterlimit="10"/>
<path d="M76.7422 22.7434L82.0337 11.4187L87.4529 22.6722" stroke="#191970" stroke-linecap="round" stroke-linejoin="round"/>
<path d="M114.468 22.9468L119.76 11.6195L125.179 22.8756" stroke="#191970" stroke-linecap="round" stroke-linejoin="round"/>
<path d="M90.4741 22.7434V18.7601H94.4571C95.6405 18.7601 96.8109 18.3889 97.6971 17.6263C98.3306 17.0798 98.8623 16.307 98.8701 15.2546C98.8753 14.1997 98.4296 13.4422 97.8926 12.9083C97.1628 12.1864 96.1358 11.8229 95.0957 11.8229H90.4793" stroke="#191970" stroke-miterlimit="10"/>
<path d="M102.431 11.3552V22.7434" stroke="#191970" stroke-linecap="round" stroke-linejoin="round"/>
<path d="M105.1 11.6348H114.468" stroke="#191970" stroke-linecap="round" stroke-linejoin="round"/>
<path d="M109.672 22.7434V11.9627" stroke="#191970" stroke-linecap="round" stroke-linejoin="round"/>
<path d="M65.0044 40.868L70.2959 29.5433L75.7151 40.7993" stroke="#191970" stroke-linecap="round" stroke-linejoin="round"/>
<path d="M78.8822 35.1078V40.4231H82.3151C84.7315 40.4231 87.0514 39.2385 88.227 37.1795C88.6232 36.4855 88.8969 35.6873 88.923 34.7951C88.9569 33.5444 88.4642 32.5403 87.8073 31.7625C86.6421 30.3771 84.8436 29.6501 83.0059 29.6501H78.5459" stroke="#191970" stroke-linecap="round" stroke-linejoin="round"/>
<path d="M90.5208 29.2611L95.6845 40.2985L101.023 29.2611" stroke="#191970" stroke-linecap="round" stroke-linejoin="round"/>
<path d="M103.885 29.3704V40.751" stroke="#191970" stroke-linecap="round" stroke-linejoin="round"/>
<path d="M114.917 30.1966C114.917 30.1966 113.621 29.1823 111.512 29.2916C109.401 29.4009 108.027 30.344 108.027 32.3471C108.027 34.8256 111.418 34.7671 112.823 35.1993C114.645 35.7611 115.282 36.8668 115.282 37.726C115.282 39.6275 113.441 40.5172 111.637 40.5172C109.834 40.5172 107.579 38.9894 107.579 38.9894" stroke="#191970" stroke-linecap="round" stroke-linejoin="round"/>
<path d="M151.597 30.0771C151.597 30.0771 150.302 29.0628 148.193 29.1722C146.084 29.2815 144.708 30.2245 144.708 32.2277C144.708 34.7061 148.099 34.6476 149.504 35.0798C151.326 35.6416 151.962 36.7474 151.962 37.6066C151.962 39.508 150.122 40.3977 148.318 40.3977C146.514 40.3977 144.26 38.8699 144.26 38.8699" stroke="#191970" stroke-linecap="round" stroke-linejoin="round"/>
<path d="M123.643 40.4079C126.786 40.4079 129.334 37.9234 129.334 34.8586C129.334 31.7939 126.786 29.3094 123.643 29.3094C120.501 29.3094 117.953 31.7939 117.953 34.8586C117.953 37.9234 120.501 40.4079 123.643 40.4079Z" stroke="#191970" stroke-linecap="round" stroke-linejoin="round"/>
<path d="M132.98 29.5738H137.831C138.78 29.5738 139.724 29.8915 140.402 30.5398C140.928 31.0431 141.363 31.7828 141.356 32.8632C141.35 33.8062 140.991 34.5383 140.529 35.0925C139.74 36.033 138.52 36.5262 137.271 36.5262H133.267V40.7663" stroke="#191970" stroke-linecap="round" stroke-linejoin="round"/>
<path d="M141.614 40.7053L138.447 36.5262" stroke="#191970" stroke-linecap="round" stroke-linejoin="round"/>
<path d="M53.6838 7.69976V44.742" stroke="#191970" stroke-linecap="round" stroke-linejoin="round"/>
<path d="M28.7462 27.2707C27.972 28.5773 26.2569 29.0247 24.917 28.2723C23.5772 27.5173 23.1158 25.8447 23.89 24.5381C24.6642 23.2315 26.3794 22.7815 27.7192 23.5365C29.059 24.2915 29.5204 25.9641 28.7462 27.2707Z" stroke="#191970" stroke-miterlimit="10"/>
<path d="M34.1055 22.1791C35.3384 25.1532 34.7154 28.6892 32.2391 31.0965C28.9365 34.307 23.5928 34.2994 20.3007 31.0812C17.9495 28.7832 17.2822 25.4659 18.2935 22.5909" stroke="#191970" stroke-miterlimit="10"/>
<path d="M36.6938 14.9115C33.0497 10.0155 27.8834 11.4899 26.3428 12.0746C21.3068 10.013 15.8746 13.071 14.7745 17.4331C12.4442 26.6632 7.53589 26.0963 7.53589 26.0963C13.3591 26.3403 12.7752 32.459 16.1118 36.9405C19.7558 41.8365 24.9222 40.3621 26.4628 39.7774C31.4988 41.839 36.931 38.781 38.031 34.4189C40.3614 25.1888 45.2697 25.7557 45.2697 25.7557C39.4438 25.5117 40.0303 19.393 36.6938 14.9115Z" stroke="#191970" stroke-miterlimit="10"/>
</svg>
