<svg width="146" height="119" viewBox="0 0 146 119" fill="none" xmlns="http://www.w3.org/2000/svg">
<path d="M82.3701 64.4178C79.4001 69.5578 72.8201 71.3178 67.6801 68.3578C62.5401 65.3878 60.7701 58.8078 63.7401 53.6678C66.7101 48.5278 73.2901 46.7578 78.4301 49.7278C83.5701 52.6978 85.3401 59.2778 82.3701 64.4178Z" stroke="#3F69FF" stroke-width="4" stroke-miterlimit="10"/>
<path d="M102.93 44.3878C107.66 56.0878 105.27 69.9978 95.77 79.4678C83.1 92.0978 62.6 92.0678 49.97 79.4078C40.95 70.3678 38.39 57.3178 42.27 46.0078" stroke="#3F69FF" stroke-width="4" stroke-miterlimit="10"/>
<path d="M112.86 15.7978C98.88 -3.4622 79.06 2.3378 73.15 4.6378C53.83 -3.4722 32.99 8.55781 28.77 25.7178C19.83 62.0278 1 59.7978 1 59.7978C23.34 60.7578 21.1 84.8278 33.9 102.458C47.88 121.718 67.7 115.918 73.61 113.618C92.93 121.728 113.77 109.698 117.99 92.5378C126.93 56.2278 145.76 58.4578 145.76 58.4578C123.41 57.4978 125.66 33.4278 112.86 15.7978Z" stroke="#3F69FF" stroke-width="4" stroke-miterlimit="10"/>
</svg>
