<svg width="180" height="180" viewBox="0 0 180 180" fill="none" xmlns="http://www.w3.org/2000/svg">
<path d="M180 120.938C180 138.023 170.513 151.875 151.875 151.875H28.125C9.48656 151.875 0 138.023 0 120.938V59.0625C0 41.9766 9.48656 28.125 28.125 28.125H151.875C170.513 28.125 180 41.9766 180 59.0625V120.938Z" fill="#E6E7E8"/>
<path fill-rule="evenodd" clip-rule="evenodd" d="M76.1343 103.666C76.4437 101.661 75.2962 100.443 74.0896 99.3065C73.7296 98.9662 73.1643 98.5556 72.7368 98.6147C71.204 98.8031 69.5333 98.2012 68.1187 99.2925C67.8599 99.5006 67.4268 99.4809 67.0668 99.5512C66.6224 99.6384 66.1696 99.7537 65.7168 99.7903C65.3881 99.8427 65.0519 99.8216 64.7324 99.7284C63.7115 99.3825 62.5021 99.2109 61.723 98.5472C60.4658 97.4756 59.0737 96.7162 57.5324 96.57C56.0418 96.4322 55.4005 95.2228 54.298 94.7222C52.5458 93.9234 52.1408 92.4693 51.8652 90.9056C51.6515 89.6653 51.3421 88.619 50.0371 88.1297C49.7221 88.0059 49.5449 87.5475 49.2946 87.255C48.4002 86.1862 49.0977 84.6956 48.3046 83.5931C48.2596 83.5312 48.2652 83.4103 48.2905 83.3203C48.808 81.6047 48.1893 80.19 47.1768 78.8231C46.4849 77.8781 46.648 76.8403 47.1627 75.8587C47.9193 76.5619 48.6787 77.2087 49.3705 77.9203C50.383 78.9384 51.9102 79.3294 53.1955 78.6065C55.1277 77.504 57.1021 76.4465 57.6674 73.9265C57.8755 72.9815 58.469 72.0112 59.7177 71.9381C59.8049 71.9297 59.8808 71.8622 59.968 71.8172C62.384 70.3153 64.814 70.56 67.2637 71.7244C68.3324 72.225 69.4002 72.7322 70.4671 73.2459C71.1449 73.5862 71.7693 73.4934 72.4162 73.1475C74.3905 72.0759 75.6196 70.5037 75.7433 68.2059C75.8446 66.4987 75.9515 64.7831 75.9262 63.0815C75.9065 62.0747 75.6618 61.0734 75.4874 59.8894C76.0752 60.1172 76.4746 60.2887 76.8683 60.4181C78.4377 60.9159 80.0015 61.4362 81.5737 61.8947C81.9787 62.0128 82.4427 62.0212 82.8533 61.9453C83.804 61.7765 84.7152 61.5347 85.6658 62.0269C85.9415 62.1731 86.4308 62.0859 86.743 61.9397C87.4124 61.6134 87.9187 61.7512 88.5543 62.1056C89.1393 62.4234 89.8902 62.4712 90.5737 62.5387C91.3415 62.6259 92.129 62.519 92.8771 62.6372C95.8218 63.1294 98.7468 63.1406 101.717 62.744C103.731 62.474 105.573 61.3547 107.719 61.6359C108.236 61.7119 108.858 61.2253 109.401 60.9244C109.853 60.66 110.25 60.2887 110.652 59.9625C111.544 59.22 112.368 58.7053 113.715 58.8656C116.249 59.1609 118.611 58.1681 120.864 57.0712C122.341 56.354 123.77 55.5244 125.249 54.7847C126.011 54.3853 126.886 54.1603 127.589 53.6765C128.447 53.0972 129.282 52.425 129.918 51.6262C130.559 50.8275 131.181 50.2903 132.244 50.4872C132.384 50.5125 132.57 50.5378 132.702 50.4675C134.451 49.5984 136.547 49.3312 137.843 47.6269C138.434 46.845 139.095 46.3162 140.144 46.2544C140.577 46.2234 141.002 45.7762 141.421 45.5259C141.578 45.4247 141.727 45.2531 141.879 45.2531C144.034 45.2531 145.78 44.1084 147.617 43.2084C147.724 43.155 147.845 43.1184 148.07 43.0425C147.989 43.478 147.901 43.9121 147.805 44.3447C147.673 44.9494 147.299 45.1772 146.669 45.3572C144.138 46.0997 141.792 47.1628 140.543 49.7531C140.329 50.1604 139.976 50.4769 139.548 50.6447C138.192 51.1172 137.23 52.034 136.316 53.0859C135.88 53.5827 135.33 53.9667 134.713 54.2053C131.788 55.319 129.195 56.9165 127.142 59.2959C126.7 59.805 126.382 60.4406 126.152 61.0762C125.598 62.5612 125.156 62.9522 123.514 62.73C122.489 62.5813 121.448 62.842 120.614 63.4556C120.411 63.5878 120.147 63.734 120.06 63.9337C119.168 65.8294 117.841 67.5506 118.246 69.885C118.488 71.2744 119.174 72.3769 120.08 73.3697C120.87 74.2387 121.728 75.0178 122.096 76.2272C122.256 76.7165 122.934 77.0175 123.331 77.4534C123.795 77.9653 124.211 78.5194 124.664 79.0397C124.99 79.425 125.342 79.7709 125.665 80.1534C126.155 80.7384 126.546 81.3684 126.149 82.049C124.686 81.7087 123.291 81.3825 121.894 81.0647C121.742 81.024 121.584 81.0154 121.43 81.0394C120.549 81.2869 119.672 81.5372 118.749 81.8072C118.384 83.4806 117.574 83.7619 116.097 82.6031C115.906 82.4456 115.712 82.2853 115.498 82.1587C113.358 80.9634 111.125 81.0619 108.942 81.9C107.367 82.4906 106.993 83.9559 106.909 85.4915C106.883 85.8319 106.883 86.1694 106.883 86.5153C106.909 87.4069 106.996 88.2844 106.076 88.9172C105.719 89.1759 105.598 89.7609 105.401 90.1406C104.796 90.1406 104.242 90.1153 103.688 90.1406C102.771 90.1715 102.186 90.7312 101.601 91.3837C101.25 91.755 100.727 91.9884 100.254 92.2331C99.2418 92.745 98.204 93.2175 97.183 93.7125C96.3252 94.1203 95.459 94.5225 94.6237 94.964C93.7878 95.3991 92.8381 95.5661 91.904 95.4422C91.5693 95.4028 91.2008 95.7319 90.8324 95.8444C90.0955 96.0722 89.294 96.5503 88.619 96.4181C86.5321 95.9906 84.6365 96.0187 82.6705 97.0903C81.6496 97.6415 80.6483 98.1084 79.858 98.9634C78.4293 100.499 78.3196 101.649 79.4671 103.379C79.5655 103.539 79.6668 103.694 79.8524 103.984C78.584 103.882 77.4449 103.776 76.1287 103.655" fill="#D68F32"/>
<path fill-rule="evenodd" clip-rule="evenodd" d="M58.2102 108.512C60.7696 108.132 65.2246 111.904 65.2049 114.421C62.5274 114.508 58.2805 111.398 58.2102 108.512ZM127.237 108.467C126.846 111.378 123.111 114.576 120.285 114.474C120.009 112.115 124.312 108.346 127.237 108.467ZM117.186 118.181C119.883 116.016 122.878 115.67 126.107 116.153C125.162 118.845 119.357 120.192 117.186 118.181ZM59.2874 116.297C61.9846 115.341 66.5211 116.353 68.1496 118.246C66.2427 120.17 61.034 119.064 59.2874 116.297ZM68.428 115.369C66.2202 114.238 64.873 109.432 66.0261 107.007C68.1636 108.385 69.5221 113.034 68.428 115.369ZM119.391 107.016C120.572 109.375 119.23 114.196 117.076 115.352C115.616 113.729 117.489 107.935 119.391 107.016ZM98.263 125.536C97.4502 123.151 98.8986 118.344 102.032 117.453C102.172 120.791 100.583 123.252 98.263 125.536ZM83.5452 117.419C86.2761 118.617 88.1268 122.633 87.2324 125.333C85.0949 124.279 82.9602 119.768 83.5452 117.419ZM74.6886 113.513C77.2874 115.237 78.6036 119.469 77.2171 121.452C75.1471 120.49 73.8505 116.488 74.6886 113.513ZM108.259 121.5C106.841 119.461 108.171 115.208 110.691 113.56C111.749 115.875 110.309 120.482 108.259 121.5ZM76.843 123.303C74.8827 125.511 71.2658 126.579 69.013 125.651C69.7499 123.289 74.4102 121.868 76.843 123.303ZM116.466 125.651C114.058 126.554 110.362 125.454 108.658 123.348C110.621 121.787 115.332 123.145 116.466 125.651ZM106.535 115.819C107.232 118.184 105.609 122.273 103.469 123.668C102.035 121.956 103.629 117.841 106.535 115.819ZM73.7999 127.963C75.2005 125.963 78.989 124.926 81.4499 125.862C80.4121 128.821 76.1624 129.22 73.7999 127.963ZM82.0405 123.716C79.8383 122.282 78.2043 118.173 78.8821 115.903C81.419 117.062 83.2668 121.584 82.0405 123.716ZM111.687 127.958C108.666 129.428 105.081 128.469 103.986 125.938C106.082 124.844 109.901 125.826 111.687 127.958ZM70.5374 110.616C72.8915 112.818 73.6874 116.227 72.3908 118.392C70.7708 117.456 68.8386 112.43 70.5374 110.616ZM114.896 110.616C116.378 112.078 115.236 116.474 113.15 118.406C111.667 116.592 112.491 112.888 114.896 110.616ZM78.4321 130.916C79.4418 128.914 83.6043 126.7 85.7108 127.412C84.8361 130.154 81.7705 131.653 78.4321 130.916ZM107.016 130.928C103.551 131.6 100.527 130.103 99.7368 127.387C101.995 126.869 105.668 128.638 107.016 130.928ZM71.668 121.022C70.2843 122.802 65.7899 123.055 64.0152 121.444C65.2246 119.475 68.3886 119.714 71.668 121.022ZM113.653 120.904C116.384 120.338 118.994 118.991 121.466 121.303C119.995 123.064 115.245 122.87 113.653 120.904ZM98.8593 126.523C97.4418 127.013 96.0186 127.505 94.4858 128.039L97.6161 129.473L97.5458 129.693C96.3927 129.403 95.2424 129.046 94.0724 128.863C93.1661 128.728 92.2449 128.728 91.3386 128.863C90.1855 129.035 89.0521 129.403 87.8174 129.479C88.8074 129.021 89.8002 128.562 90.8999 128.039C89.4121 127.522 87.9693 127.021 86.5321 126.509L86.549 126.259C90.6496 127.946 94.7502 127.958 98.8396 126.264L98.8593 126.523Z" fill="#128807"/>
</svg>
