<svg width="180" height="180" viewBox="0 0 180 180" fill="none" xmlns="http://www.w3.org/2000/svg">
<g clip-path="url(#clip0_142_2375)">
<path d="M180 135C180 140.304 177.893 145.391 174.142 149.142C170.391 152.893 165.304 155 160 155H20C14.6957 155 9.60859 152.893 5.85786 149.142C2.10714 145.391 0 140.304 0 135V45C0 39.6957 2.10714 34.6086 5.85786 30.8579C9.60859 27.1071 14.6957 25 20 25H160C165.304 25 170.391 27.1071 174.142 30.8579C177.893 34.6086 180 39.6957 180 45V135Z" fill="#141414"/>
<path d="M0 65H180V115H0V65Z" fill="#EEEEEE"/>
<path d="M160 25H20C14.6957 25 9.60859 27.1071 5.85786 30.8579C2.10714 34.6086 0 39.6957 0 45L0 65H180V45C180 39.6957 177.893 34.6086 174.142 30.8579C170.391 27.1071 165.304 25 160 25Z" fill="#CE1225"/>
<path d="M73.75 107.81C73.75 107.81 73.83 109.06 74.92 109.685C74.92 109.685 74.61 110.625 75.78 111.17C76.95 111.715 81.17 112.575 88.515 112.575C95.86 112.575 100 111.795 101.095 111.245C102.19 110.7 102.265 109.45 102.265 109.45C102.265 109.45 103.435 108.825 103.36 108.045C103.285 107.265 101.72 106.405 101.72 106.405C101.72 106.405 101.33 105.39 100.235 105C99.14 104.61 95.625 106.72 88.905 106.405C82.185 106.09 78.36 105.075 77.11 105.155C75.86 105.235 75.315 106.485 75.315 106.485C75.315 106.485 73.905 107.11 73.75 107.81Z" fill="#BF9300"/>
<path d="M74.61 107.735C74.545 108.2 75.55 109.22 75.55 109.22C75.55 109.22 75.55 110.39 76.565 110.705C77.58 111.02 81.72 111.8 88.44 111.72C95.16 111.64 99.925 111.25 100.47 110.78C101.015 110.31 101.485 109.295 101.485 109.295C101.485 109.295 102.58 108.515 102.5 107.89C102.42 107.265 100.86 106.875 100.86 106.875C100.86 106.875 100.42 105.935 99.9 105.545C99.38 105.155 96.02 107.105 88.83 107.105C81.795 107.105 77.735 105.385 77.035 105.465C76.335 105.545 75.865 106.87 75.865 106.87C75.865 106.87 74.69 107.19 74.61 107.735Z" fill="#EEEEEE"/>
<path d="M104.295 77.42C104.295 77.42 104.14 73.75 100.78 74.215C97.4199 74.685 97.1849 76.325 93.5899 76.715L92.8499 76.785C92.2509 75.1592 91.9199 73.4469 91.8699 71.715C91.8699 69.37 92.5749 68.355 90.1499 67.185C87.7299 66.015 87.2599 67.105 87.2599 67.105C87.2599 67.105 85.3849 66.165 84.5249 66.87C83.6649 67.575 84.1349 69.37 84.5249 68.825C84.9149 68.28 86.4799 69.84 86.4799 69.84C87.0099 72.435 85.5049 75.245 84.4749 76.81C84.1199 76.775 83.8349 76.76 83.4349 76.715C79.8399 76.325 79.6049 74.685 76.2449 74.215C72.8849 73.745 72.7299 77.42 72.7299 77.42L71.3999 105.78L74.1349 103.67L74.1499 103.335L79.8399 98.28L80.7899 97.33L78.4349 104.215C78.4349 104.215 74.8399 103.98 75.8549 106.87C75.8549 106.87 76.3999 105.23 77.3399 105.54C78.2799 105.85 81.0099 106.555 81.0099 106.555L81.9499 108.04L83.1199 106.945L86.7899 106.79C86.7899 106.79 87.9599 107.1 87.8849 108.12C88.0985 107.681 88.1634 107.184 88.0699 106.705L89.1749 106.63C89.0583 107.133 89.1184 107.661 89.3449 108.125C89.2649 107.11 90.4399 106.795 90.4399 106.795L94.1099 106.95L95.2849 108.045L96.2249 106.56C96.2249 106.56 98.9549 105.855 99.8899 105.545C100.825 105.235 101.375 106.875 101.375 106.875C102.39 103.985 98.7949 104.22 98.7949 104.22L96.5499 97.655L97.1799 98.285L102.87 103.34L102.885 103.675L105.62 105.785L104.295 77.42ZM88.7599 94.61C83.1249 91.13 82.6599 82.345 82.6599 82.345C82.6599 82.345 86.1449 82.165 88.6749 80.39C90.9549 82.415 94.8449 82.185 94.8449 82.185C94.8449 82.185 94.5799 91.005 88.7599 94.61ZM101.64 76.33L96.8749 80.86L96.0749 81.18C95.2549 81.21 91.2649 81.22 88.7499 78.985C85.6249 81.175 81.3299 81.33 81.3299 81.33L80.6649 81.065L75.3899 76.33L74.0049 76.9C74.0649 76.335 74.3749 75.065 76.0949 75.315C78.9149 75.72 80.0799 77.27 83.0499 77.58L83.8899 77.665L83.5949 78.045C84.0549 78.045 84.7349 77.91 85.2349 77.8L85.7999 77.855L85.5449 78.745C85.9449 78.625 86.5249 78.28 86.9999 77.975L88.2999 78.1L88.5949 78.51L89.5849 78.015L90.2499 77.95C90.8249 78.285 91.6449 78.585 91.6449 78.585L91.7999 77.805C92.5049 78.275 93.6749 78.275 93.6749 78.275C93.5399 78.165 93.4049 77.885 93.2649 77.645L93.9849 77.57C96.9549 77.26 98.1149 75.71 100.94 75.305C102.66 75.06 102.97 76.325 103.03 76.89L101.64 76.33Z" fill="#BF9300"/>
<path d="M86.875 94.455L84.06 105.155L79.375 104.22L84.22 90.47L86.875 94.455ZM90.37 94.455L93.18 105.155L97.87 104.22L93.025 90.47L90.37 94.455Z" fill="#EEEEEE"/>
<path d="M83.8301 83.2049C83.8301 83.2049 84.2201 87.7349 86.2501 91.2499V82.1899C86.2501 82.1899 84.9201 82.9699 83.8301 83.2049ZM93.5951 83.3599C93.5951 83.3599 93.2051 87.8899 91.1751 91.4049V82.3449C91.1701 82.3449 92.5001 83.1249 93.5951 83.3599Z" fill="#BF9300"/>
<path d="M84.7649 67.89C84.7649 67.89 85.3099 67.345 86.8749 68.435C87.8899 69.145 88.7899 69.685 88.7899 69.685C88.7899 69.685 89.4299 69.01 90.3699 69.165C91.3099 69.32 90.7849 70.625 90.9399 73.355C91.0949 76.09 92.1899 77.26 92.1899 77.26L90.8599 76.48L90.9399 77.34L89.4549 76.635L88.7499 77.65L88.0449 76.555L86.9049 77.25L86.5599 76.32L85.2299 77.025C85.2299 77.025 87.1849 74.605 87.3399 71.945C87.3849 71.15 87.1849 69.365 87.1849 69.365C87.1849 69.365 85.9399 67.81 84.7649 67.89Z" fill="#EEEEEE"/>
<path d="M77.735 108.28C76.84 108.815 77.19 109.14 77.735 109.375C78.28 109.61 81.56 110.005 88.205 110.155C95 110.31 99.22 109.53 99.765 109.215C100.31 108.905 100.39 108.355 99.455 108.2C98.515 108.045 93.83 108.825 88.125 108.825C81.095 108.83 78.125 108.045 77.735 108.28Z" fill="#BF9300"/>
</g>
<defs>
<clipPath id="clip0_142_2375">
<rect width="180" height="180" fill="white"/>
</clipPath>
</defs>
</svg>
