<svg width="180" height="180" viewBox="0 0 180 180" fill="none" xmlns="http://www.w3.org/2000/svg">
<path d="M180 123.75C180 140.836 170.513 154.688 151.875 154.688H28.125C9.48656 154.688 0 140.836 0 123.75V61.875C0 44.7891 9.48656 30.9375 28.125 30.9375H151.875C170.513 30.9375 180 44.7891 180 61.875V123.75Z" fill="#EC1C24"/>
<path fill-rule="evenodd" clip-rule="evenodd" d="M96.1313 56.3906C96.2325 56.3315 96.3254 56.2556 96.5954 56.0587C95.9569 56.0278 95.535 55.9828 95.116 55.9884C87.6038 56.07 81.6722 59.1581 77.5041 65.4356C72.0113 73.7043 73.3529 84.1275 80.716 90.4781C82.0069 91.5918 83.4694 92.4862 84.8504 93.4818L85.0444 93.2625C82.3304 90.7453 80.865 87.6093 80.4685 83.984C80.0691 80.3868 80.7807 77.0062 82.8675 73.9603C82.9688 74.1796 82.9913 74.4103 82.8985 74.565C81.7748 76.4858 81.099 78.6354 80.9213 80.8537C80.5894 85.4437 81.9029 89.4459 85.2329 92.714C85.3819 92.8575 85.5647 92.9615 85.7616 93.105C85.7925 92.9925 85.8094 92.9559 85.7982 92.9446C85.6852 92.7432 85.5661 92.5453 85.441 92.3512C84.3965 90.726 84.0159 88.7617 84.3779 86.864C84.9291 83.7984 86.7882 81.7284 89.4685 80.2546C90.45 79.7203 91.4147 79.0734 92.1882 78.2775C94.9022 75.4818 96.3732 69.9103 93.7154 65.8687C91.3613 62.2968 92.5032 58.7053 96.1313 56.3906ZM88.3772 72.9337L88.186 72.9168L86.4282 72.959L85.0444 75.0768L84.8194 74.4356L84.7604 74.3934C84.7604 74.3415 84.7557 74.2897 84.7463 74.2387L84.2091 72.689L81.7679 72.0253L83.7816 70.4812L83.6579 67.9556L85.7419 69.4012L88.1044 68.5068L87.3788 70.9284L88.965 72.8915L88.3575 72.9168L88.3772 72.9337Z" fill="white"/>
<path fill-rule="evenodd" clip-rule="evenodd" d="M126.214 89.4121C122.856 79.7934 113.305 74.1121 103.253 75.7377C95.6336 76.964 89.7695 82.6424 87.9583 90.5596C87.8458 91.0546 87.7698 91.5496 87.6658 92.0446C91.4373 84.119 100.6 82.1699 105.534 84.0374C105.351 84.0768 105.154 84.1584 104.982 84.1218C102.957 83.7168 100.935 83.6521 98.9158 84.0796C94.2723 85.0584 90.7033 87.5193 88.4926 91.8027C88.338 92.0981 88.2395 92.4159 88.1017 92.7252C89.1451 91.4934 90.2983 90.4837 91.7608 89.8621C95.0486 88.4784 99.0226 89.3024 101.63 92.2527C104.611 95.639 112.874 96.5643 116.294 91.9406C116.539 91.6171 116.854 91.3359 117.163 91.0602C119.976 88.5768 123.325 88.5431 126.2 90.9674C126.357 91.0856 126.509 91.1868 126.847 91.4399C126.596 90.6243 126.428 90.014 126.214 89.4121ZM109.803 87.1734L108.408 89.294L108.217 88.7484L108.205 88.7681C108.175 88.6921 108.163 88.6134 108.146 88.5346L107.57 86.9062L105.134 86.2396L107.142 84.704L107.019 82.1812L109.1 83.6184L111.465 82.7212L110.74 85.1512L112.329 87.1143L109.803 87.1734Z" fill="white"/>
<path fill-rule="evenodd" clip-rule="evenodd" d="M109.716 103.067C106.324 97.3237 101.194 94.3312 94.5845 93.8615C93.0601 93.7575 91.5076 93.9122 89.9636 93.9375L89.9579 94.1709C90.1548 94.2187 90.3405 94.2722 90.5401 94.3143C90.7651 94.3565 91.0042 94.3621 91.2236 94.4156C96.5448 95.6896 100.148 98.9578 102.181 103.967C102.704 105.255 102.867 106.692 103.171 108.07C103.202 108.202 103.028 108.366 102.96 108.52C102.876 108.382 102.783 108.259 102.715 108.124C102.679 108.059 102.71 107.966 102.699 107.89C101.796 101.992 98.6879 97.7709 93.1136 95.5181C91.9745 95.0484 90.7117 94.8796 89.4995 94.5731L89.522 94.7278C90.5317 95.3746 91.6539 95.8865 92.5314 96.6684C95.3776 99.2137 96.0301 103.486 94.0755 107.179C92.7564 109.673 92.6467 112.188 93.3639 114.815C94.1908 117.802 95.8164 120.111 98.8258 121.281C99.4839 121.537 100.128 121.925 100.69 122.358C102.715 123.888 103.711 125.913 103.286 128.483C103.149 129.31 102.853 130.103 102.614 131.003C102.876 130.849 103.084 130.731 103.292 130.593C112.323 124.647 115.214 112.382 109.716 103.067ZM103.416 114.002L101.934 116.055L101.208 113.633L98.7976 112.854L100.876 111.412L100.87 108.883L102.881 110.416L105.292 109.631L104.456 112.022L105.944 114.064L103.416 114.002Z" fill="white"/>
<path fill-rule="evenodd" clip-rule="evenodd" d="M88.6865 96.989C88.65 96.913 88.574 96.8568 88.4615 96.733C90.0647 105.502 84.0319 112.146 78.9778 113.864C78.9178 113.795 78.8587 113.723 78.8006 113.65C78.9975 113.507 79.1887 113.332 79.4025 113.223C84.8053 110.514 87.7978 106.175 88.245 100.119C88.3402 98.8958 88.1675 97.6663 87.7387 96.5165C87.6459 97.0143 87.6262 97.5037 87.5615 97.9818C86.8922 102.679 82.3022 105.604 77.7037 104.844C74.7365 104.355 72.135 104.962 69.7106 106.625C67.8431 107.921 66.3581 109.541 65.759 111.794C65.5397 112.66 65.4975 113.574 65.354 114.463C64.8478 117.666 62.7525 119.807 59.6728 120.223C58.9472 120.319 58.2019 120.237 57.4565 120.237C57.4819 120.347 57.4762 120.414 57.5072 120.442C57.6844 120.594 57.8503 120.746 58.0387 120.881C61.2112 123.269 64.7325 124.85 68.729 125.153C76.7334 125.758 83.2387 122.867 87.7753 116.252C91.98 110.118 91.7325 103.567 88.6865 96.989ZM76.1484 116.151L74.6719 118.201L73.9462 115.785L71.5359 115.009L73.62 113.566L73.6003 111.035L75.6225 112.567L78.0244 111.78L77.1862 114.173L78.6769 116.212L76.1484 116.151Z" fill="white"/>
<path fill-rule="evenodd" clip-rule="evenodd" d="M85.4579 96.3281C82.2291 98.1337 78.795 98.564 75.2204 97.8356C71.6513 97.11 68.6813 95.3578 66.4004 92.4609C66.5124 92.4493 66.6256 92.4603 66.7333 92.4931C66.841 92.526 66.9411 92.58 67.0275 92.6522C67.7954 93.3328 68.4929 94.1175 69.3338 94.7025C74.1375 98.01 79.2282 98.6625 84.6085 96.1959C84.915 96.0468 85.2019 95.8443 85.5816 95.6137C84.4004 95.729 83.3429 95.9709 82.3219 95.895C78.8569 95.6137 76.5 93.6984 75.1613 90.5625C74.7113 89.4881 74.5257 88.2928 74.3007 87.1368C73.575 83.3203 68.0119 78.0637 62.3841 79.6078C58.2047 80.7525 54.6272 78.6122 53.7694 74.3709C53.7525 74.2697 53.6513 74.1881 53.5669 74.0559C53.4966 74.1881 53.4544 74.2528 53.4179 74.3203C53.3588 74.4637 53.3138 74.6072 53.2575 74.7534C51.1791 80.7497 51.5363 86.5687 54.7004 92.1122C60.0497 101.483 72.0647 105.907 82.2291 99.1265C83.4047 98.3418 84.4735 97.3997 85.59 96.539L85.4579 96.3281ZM64.1054 93.0431L63.3797 90.6272L60.9694 89.8509L63.0535 88.4081L63.0422 85.8768L65.0616 87.4097L67.4635 86.6278L66.6254 89.0156L68.116 91.0603L65.5875 91.0012L64.1054 93.0431Z" fill="white"/>
</svg>
