<svg width="180" height="180" viewBox="0 0 180 180" fill="none" xmlns="http://www.w3.org/2000/svg">
<g clip-path="url(#clip0_142_2418)">
<path d="M0 135C0 140.304 2.10714 145.391 5.85786 149.142C9.60859 152.893 14.6957 155 20 155H160C165.304 155 170.391 152.893 174.142 149.142C177.893 145.391 180 140.304 180 135V110H0V135Z" fill="#138808"/>
<path d="M180 70V45C180 39.6957 177.893 34.6086 174.142 30.8579C170.391 27.1071 165.304 25 160 25H20C14.6957 25 9.60859 27.1071 5.85786 30.8579C2.10714 34.6086 0 39.6957 0 45L0 70H180Z" fill="#FF9933"/>
<path d="M0 68.335H180V111.67H0V68.335Z" fill="#F7F7F7"/>
<path d="M90 110C101.046 110 110 101.046 110 90C110 78.9543 101.046 70 90 70C78.9543 70 70 78.9543 70 90C70 101.046 78.9543 110 90 110Z" fill="#000080"/>
<path d="M90 106.875C99.3198 106.875 106.875 99.3198 106.875 90C106.875 80.6802 99.3198 73.125 90 73.125C80.6802 73.125 73.125 80.6802 73.125 90C73.125 99.3198 80.6802 106.875 90 106.875Z" fill="#F7F7F7"/>
<path d="M90.5 83.75L90 87L89.5 83.75L90 74L90.5 83.75ZM85.86 74.545L87.9 84.09L89.225 87.1L88.865 83.835L85.86 74.545ZM82 76.145L86.44 84.835L88.5 87.4L87.31 84.335L82 76.145ZM78.685 78.685L85.225 85.935L87.88 87.88L85.935 85.225L78.685 78.685ZM76.145 82L84.335 87.31L87.4 88.5L84.835 86.44L76.145 82ZM74.545 85.86L83.835 88.865L87.1 89.225L84.09 87.9L74.545 85.86ZM74 90L83.75 90.5L87 90L83.75 89.5L74 90ZM74.545 94.14L84.09 92.1L87.1 90.775L83.835 91.135L74.545 94.14ZM76.145 98L84.835 93.56L87.4 91.5L84.335 92.69L76.145 98ZM78.685 101.315L85.935 94.775L87.88 92.12L85.225 94.065L78.685 101.315ZM82 103.855L87.31 95.665L88.5 92.6L86.44 95.165L82 103.855ZM85.86 105.455L88.865 96.165L89.225 92.9L87.9 95.91L85.86 105.455ZM90 106L90.5 96.25L90 93L89.5 96.25L90 106ZM94.14 105.455L92.1 95.91L90.775 92.9L91.135 96.165L94.14 105.455ZM98 103.855L93.56 95.165L91.5 92.6L92.69 95.665L98 103.855ZM101.315 101.315L94.775 94.065L92.12 92.12L94.065 94.775L101.315 101.315ZM103.855 98L95.665 92.69L92.6 91.5L95.165 93.56L103.855 98ZM105.455 94.14L96.165 91.135L92.9 90.775L95.91 92.1L105.455 94.14ZM106 90L96.25 89.5L93 90L96.25 90.5L106 90ZM105.455 85.86L95.91 87.9L92.9 89.225L96.165 88.865L105.455 85.86ZM103.855 82L95.165 86.44L92.6 88.5L95.665 87.31L103.855 82ZM101.315 78.685L94.065 85.225L92.12 87.88L94.775 85.935L101.315 78.685ZM98 76.145L92.69 84.335L91.5 87.4L93.56 84.835L98 76.145ZM94.14 74.545L91.135 83.835L90.775 87.1L92.1 84.09L94.14 74.545Z" fill="#6666B3"/>
<path d="M87.7998 74.295C88.3521 74.295 88.7998 73.8473 88.7998 73.295C88.7998 72.7428 88.3521 72.295 87.7998 72.295C87.2475 72.295 86.7998 72.7428 86.7998 73.295C86.7998 73.8473 87.2475 74.295 87.7998 74.295Z" fill="#000080"/>
<path d="M83.5498 75.4351C84.1021 75.4351 84.5498 74.9873 84.5498 74.4351C84.5498 73.8828 84.1021 73.4351 83.5498 73.4351C82.9975 73.4351 82.5498 73.8828 82.5498 74.4351C82.5498 74.9873 82.9975 75.4351 83.5498 75.4351Z" fill="#000080"/>
<path d="M79.74 77.63C80.2923 77.63 80.74 77.1823 80.74 76.63C80.74 76.0777 80.2923 75.63 79.74 75.63C79.1877 75.63 78.74 76.0777 78.74 76.63C78.74 77.1823 79.1877 77.63 79.74 77.63Z" fill="#000080"/>
<path d="M76.6299 80.74C77.1822 80.74 77.6299 80.2923 77.6299 79.74C77.6299 79.1877 77.1822 78.74 76.6299 78.74C76.0776 78.74 75.6299 79.1877 75.6299 79.74C75.6299 80.2923 76.0776 80.74 76.6299 80.74Z" fill="#000080"/>
<path d="M74.4348 84.55C74.9871 84.55 75.4348 84.1023 75.4348 83.55C75.4348 82.9978 74.9871 82.55 74.4348 82.55C73.8825 82.55 73.4348 82.9978 73.4348 83.55C73.4348 84.1023 73.8825 84.55 74.4348 84.55Z" fill="#000080"/>
<path d="M73.2949 88.8C73.8472 88.8 74.2949 88.3523 74.2949 87.8C74.2949 87.2478 73.8472 86.8 73.2949 86.8C72.7426 86.8 72.2949 87.2478 72.2949 87.8C72.2949 88.3523 72.7426 88.8 73.2949 88.8Z" fill="#000080"/>
<path d="M73.2949 93.2001C73.8472 93.2001 74.2949 92.7524 74.2949 92.2001C74.2949 91.6478 73.8472 91.2001 73.2949 91.2001C72.7426 91.2001 72.2949 91.6478 72.2949 92.2001C72.2949 92.7524 72.7426 93.2001 73.2949 93.2001Z" fill="#000080"/>
<path d="M74.4348 97.4501C74.9871 97.4501 75.4348 97.0024 75.4348 96.4501C75.4348 95.8978 74.9871 95.4501 74.4348 95.4501C73.8825 95.4501 73.4348 95.8978 73.4348 96.4501C73.4348 97.0024 73.8825 97.4501 74.4348 97.4501Z" fill="#000080"/>
<path d="M76.6299 101.26C77.1822 101.26 77.6299 100.812 77.6299 100.26C77.6299 99.7077 77.1822 99.26 76.6299 99.26C76.0776 99.26 75.6299 99.7077 75.6299 100.26C75.6299 100.812 76.0776 101.26 76.6299 101.26Z" fill="#000080"/>
<path d="M79.74 104.37C80.2923 104.37 80.74 103.922 80.74 103.37C80.74 102.818 80.2923 102.37 79.74 102.37C79.1877 102.37 78.74 102.818 78.74 103.37C78.74 103.922 79.1877 104.37 79.74 104.37Z" fill="#000080"/>
<path d="M83.5498 106.565C84.1021 106.565 84.5498 106.117 84.5498 105.565C84.5498 105.013 84.1021 104.565 83.5498 104.565C82.9975 104.565 82.5498 105.013 82.5498 105.565C82.5498 106.117 82.9975 106.565 83.5498 106.565Z" fill="#000080"/>
<path d="M87.7998 107.705C88.3521 107.705 88.7998 107.257 88.7998 106.705C88.7998 106.153 88.3521 105.705 87.7998 105.705C87.2475 105.705 86.7998 106.153 86.7998 106.705C86.7998 107.257 87.2475 107.705 87.7998 107.705Z" fill="#000080"/>
<path d="M92.2 107.705C92.7522 107.705 93.1999 107.257 93.1999 106.705C93.1999 106.153 92.7522 105.705 92.2 105.705C91.6477 105.705 91.2 106.153 91.2 106.705C91.2 107.257 91.6477 107.705 92.2 107.705Z" fill="#000080"/>
<path d="M96.45 106.565C97.0022 106.565 97.4499 106.117 97.4499 105.565C97.4499 105.013 97.0022 104.565 96.45 104.565C95.8977 104.565 95.45 105.013 95.45 105.565C95.45 106.117 95.8977 106.565 96.45 106.565Z" fill="#000080"/>
<path d="M100.26 104.37C100.812 104.37 101.26 103.922 101.26 103.37C101.26 102.818 100.812 102.37 100.26 102.37C99.7077 102.37 99.26 102.818 99.26 103.37C99.26 103.922 99.7077 104.37 100.26 104.37Z" fill="#000080"/>
<path d="M103.37 101.26C103.922 101.26 104.37 100.812 104.37 100.26C104.37 99.7077 103.922 99.26 103.37 99.26C102.818 99.26 102.37 99.7077 102.37 100.26C102.37 100.812 102.818 101.26 103.37 101.26Z" fill="#000080"/>
<path d="M105.565 97.4501C106.117 97.4501 106.565 97.0024 106.565 96.4501C106.565 95.8978 106.117 95.4501 105.565 95.4501C105.013 95.4501 104.565 95.8978 104.565 96.4501C104.565 97.0024 105.013 97.4501 105.565 97.4501Z" fill="#000080"/>
<path d="M106.705 93.2001C107.257 93.2001 107.705 92.7524 107.705 92.2001C107.705 91.6478 107.257 91.2001 106.705 91.2001C106.153 91.2001 105.705 91.6478 105.705 92.2001C105.705 92.7524 106.153 93.2001 106.705 93.2001Z" fill="#000080"/>
<path d="M106.705 88.8C107.257 88.8 107.705 88.3523 107.705 87.8C107.705 87.2478 107.257 86.8 106.705 86.8C106.153 86.8 105.705 87.2478 105.705 87.8C105.705 88.3523 106.153 88.8 106.705 88.8Z" fill="#000080"/>
<path d="M105.565 84.55C106.117 84.55 106.565 84.1023 106.565 83.55C106.565 82.9978 106.117 82.55 105.565 82.55C105.013 82.55 104.565 82.9978 104.565 83.55C104.565 84.1023 105.013 84.55 105.565 84.55Z" fill="#000080"/>
<path d="M103.37 80.74C103.922 80.74 104.37 80.2923 104.37 79.74C104.37 79.1877 103.922 78.74 103.37 78.74C102.818 78.74 102.37 79.1877 102.37 79.74C102.37 80.2923 102.818 80.74 103.37 80.74Z" fill="#000080"/>
<path d="M100.26 77.63C100.812 77.63 101.26 77.1823 101.26 76.63C101.26 76.0777 100.812 75.63 100.26 75.63C99.7077 75.63 99.26 76.0777 99.26 76.63C99.26 77.1823 99.7077 77.63 100.26 77.63Z" fill="#000080"/>
<path d="M96.45 75.4351C97.0022 75.4351 97.4499 74.9873 97.4499 74.4351C97.4499 73.8828 97.0022 73.4351 96.45 73.4351C95.8977 73.4351 95.45 73.8828 95.45 74.4351C95.45 74.9873 95.8977 75.4351 96.45 75.4351Z" fill="#000080"/>
<path d="M92.2 74.295C92.7522 74.295 93.1999 73.8473 93.1999 73.295C93.1999 72.7428 92.7522 72.295 92.2 72.295C91.6477 72.295 91.2 72.7428 91.2 73.295C91.2 73.8473 91.6477 74.295 92.2 74.295Z" fill="#000080"/>
<path d="M90 94.5C92.4853 94.5 94.5 92.4853 94.5 90C94.5 87.5147 92.4853 85.5 90 85.5C87.5147 85.5 85.5 87.5147 85.5 90C85.5 92.4853 87.5147 94.5 90 94.5Z" fill="#000080"/>
</g>
<defs>
<clipPath id="clip0_142_2418">
<rect width="180" height="180" fill="white"/>
</clipPath>
</defs>
</svg>
