<svg width="180" height="180" viewBox="0 0 180 180" fill="none" xmlns="http://www.w3.org/2000/svg">
<g clip-path="url(#clip0_142_2395)">
<path d="M160 25H20C14.6957 25 9.60859 27.1071 5.85786 30.8579C2.10714 34.6086 0 39.6957 0 45L0 135C0 140.304 2.10714 145.391 5.85786 149.142C9.60859 152.893 14.6957 155 20 155H160C165.304 155 170.391 152.893 174.142 149.142C177.893 145.391 180 140.304 180 135V45C180 39.6957 177.893 34.6086 174.142 30.8579C170.391 27.1071 165.304 25 160 25Z" fill="#006C35"/>
<path d="M44.5949 70.25C47.7549 70.55 46.0099 64.905 47.1549 63.88C47.3699 63.375 47.7699 63.37 47.7999 64.01V68.8C47.7699 70.36 48.7949 70.815 49.5899 71.14C50.4199 71.075 50.9699 71.105 51.2949 71.91L51.6849 80.2C51.6849 80.2 53.6049 80.75 53.6949 75.535C53.7899 72.475 53.0849 69.915 53.4999 69.32C53.5149 68.735 54.2599 68.7 54.7799 68.985C55.6049 69.565 55.9749 70.285 57.2549 70C59.2099 69.465 60.3799 68.515 60.4099 67.015C60.2949 65.59 60.1349 64.165 59.5199 62.74C59.6049 62.48 59.1449 61.81 59.2299 61.55C59.5799 62.1 60.1149 62.055 60.2349 61.55C59.9049 60.455 59.3899 59.405 58.5499 58.95C57.8599 58.34 56.8499 58.465 56.4799 59.735C56.3099 61.195 57.0099 62.935 58.0699 64.35C58.2949 64.905 58.6149 65.825 58.4749 66.655C57.9099 66.975 57.3399 66.845 56.8699 66.345C56.8699 66.345 55.3149 65.18 55.3149 64.92C55.7299 62.28 55.4099 61.98 55.1799 61.25C55.0199 60.24 54.5399 59.915 54.1499 59.225C53.7599 58.815 53.2349 58.815 52.9849 59.225C52.2949 60.415 52.6149 62.975 53.1149 64.12C53.4699 65.17 54.0199 65.835 53.7599 65.835C53.5449 66.43 53.1049 66.29 52.7849 65.605C52.3249 64.185 52.2349 62.07 52.2349 61.115C52.0949 59.935 51.9449 57.41 51.1699 56.77C50.6949 56.125 49.9899 56.435 49.7449 57.03C49.6949 58.2 49.6849 59.375 49.8199 60.46C50.3499 62.355 50.5199 64.025 50.7799 65.97C50.8499 68.575 49.2749 67.1 49.3449 65.81C49.7099 64.135 49.6149 61.495 49.2899 60.825C49.0349 60.16 48.7299 59.99 48.1099 60.1C47.6199 60.06 46.3499 61.45 45.9899 63.75C45.9899 63.75 45.6849 64.935 45.5549 65.99C45.3799 67.18 44.5999 68.02 44.0499 65.825C43.5749 64.23 43.2849 60.295 42.4899 61.215C42.2599 64.29 41.9849 69.7 44.5949 70.25Z" fill="white"/>
<path d="M49.3498 72.495C46.7498 72.545 42.9448 75.91 42.8398 77.775C45.5798 76.455 48.2748 75.185 51.0648 73.825C50.6148 73.15 51.0398 72.545 49.3498 72.495Z" fill="white"/>
<path d="M63.6849 82.5799C64.8899 78.5649 63.4899 75.6049 64.1449 75.6199C65.5299 77.1149 67.4699 75.8199 67.8949 75.2999C68.0799 75.0399 68.5349 74.8699 68.8549 75.2099C69.9399 75.9899 71.8499 75.6199 72.2449 74.2499C72.4951 72.874 72.6488 71.4823 72.7049 70.0849C71.8199 70.3599 71.1599 70.5449 71.0999 70.9099L70.9149 72.0999C70.8399 72.4849 70.0749 72.4999 70.0449 72.0099C69.7099 70.4849 68.3199 70.2849 67.4799 72.6499C66.9149 73.1099 65.8949 73.1999 65.7849 72.5149C65.9199 70.9299 65.2799 70.7149 63.9999 71.4599C63.5899 68.3149 63.1749 65.3099 62.7649 62.1649C63.2999 62.1499 63.7899 62.5449 64.2749 61.9349C63.7399 60.2699 62.6099 56.8699 61.9849 56.6249C61.6799 56.2549 61.4199 56.4849 61.0249 56.5799C60.3549 56.7949 59.7299 57.3749 59.9249 58.4999C60.7199 63.3249 61.2399 66.9999 62.0299 71.8249C62.1499 72.3899 61.6799 73.1349 61.0699 73.0599C60.0349 72.3599 59.7749 70.9399 58.0049 70.9999C56.7199 71.0149 55.2549 72.4049 55.0749 73.7499C54.8599 74.8149 54.7849 75.9749 55.0749 76.9099C55.9749 77.9899 57.0599 77.8849 58.0049 77.6399C58.7799 77.3199 59.4249 76.5399 59.6949 76.7249C59.8799 76.9499 59.7399 79.5149 56.0349 81.4849C53.7899 82.4899 52.0049 82.7199 51.0449 80.8899C50.4499 79.7449 51.0899 75.3949 49.6249 76.4049C45.2899 87.5799 59.7749 89.1299 61.3949 76.8649C61.5499 76.3599 62.1599 75.8549 62.2649 76.6799C61.9299 87.7899 51.0599 88.5549 49.2149 85.0599C48.7549 84.2349 48.6199 82.4049 48.5749 81.3049C48.2999 79.1199 47.1549 79.9599 46.9749 82.1249C46.7899 83.3299 46.8399 83.6699 46.8399 84.8249C47.4149 93.5999 61.4149 89.8299 63.6849 82.5799ZM58.2849 74.9899C58.1949 75.1599 57.7999 75.0899 57.5099 75.0899C57.1799 75.0749 57.0249 75.0199 56.8249 74.7549C56.7349 74.4549 57.0149 74.1699 57.1399 73.9449C57.2949 73.6799 58.1299 73.4049 58.4249 74.1449C58.4784 74.2856 58.4937 74.4379 58.4691 74.5864C58.4445 74.7348 58.3809 74.8741 58.2849 74.9899Z" fill="white"/>
<path d="M68.0099 65.045C68.8799 64.725 73.0049 60.01 73.0049 60.01C72.7899 59.825 72.5999 59.69 72.3849 59.505C72.1549 59.305 72.1799 59.105 72.3849 58.91C73.4049 58.315 73.0799 57.01 72.5449 56.415C72.1984 56.2471 71.8177 56.1616 71.4326 56.1651C71.0475 56.1685 70.6684 56.2609 70.3249 56.435C69.6099 57.12 69.4399 58.22 70.0049 58.91C70.5549 59.17 71.1049 59.725 70.7399 60.03C69.0549 61.83 64.4349 64.935 64.9699 65.045C65.0849 65.195 67.9199 65.19 68.0099 65.045ZM71.0649 57.64C71.3299 57.575 71.6699 57.81 71.8299 58.16C71.9899 58.51 71.9049 58.845 71.6449 58.91H71.6349C71.3749 58.975 71.0349 58.74 70.8749 58.39C70.7199 58.035 70.8049 57.705 71.0649 57.64ZM44.3099 86.29C43.6299 87.675 43.3449 86.725 43.2849 85.95C43.2087 84.6485 43.2741 83.3424 43.4799 82.055C43.6499 80.955 43.4799 81.29 43.1299 81.735C41.5849 84.195 41.4499 87.875 42.3049 88.97C42.7549 89.49 43.4999 89.72 44.0549 89.55C45.0249 89.13 45.4499 87.16 45.2199 86.445C44.8899 85.94 44.6349 85.86 44.3099 86.29ZM95.2149 60.25C96.9949 62.64 98.6849 65.075 100.34 67.555C100.667 69.6983 100.9 71.81 101.04 73.89C101.315 77.91 101.395 82.26 101.145 86.495C101.895 86.525 103.11 85.275 103.53 83.45C103.805 80.925 103.43 76.43 103.405 74.94C103.372 74.0061 103.327 73.0727 103.27 72.14C105.24 75.36 107.16 78.73 109.035 82.475C109.72 82.155 109.57 78.325 109.17 77.785C107.67 74.57 105.605 71.39 104.945 70.17C104.7 69.72 103.865 68.44 102.87 66.975C102.781 65.8061 102.641 64.6416 102.45 63.485C102.14 61.345 103.335 63.72 103.17 62.475C102.785 60.335 101.595 58.89 100.205 56.93C99.7549 56.295 99.7699 56.165 99.0749 57.085C98.8341 57.6377 98.7213 58.2376 98.7449 58.84C98.5253 58.5229 98.2934 58.2143 98.0499 57.915L95.7749 55.975C95.2699 55.615 94.0399 54.965 93.8199 56.045C93.723 56.8023 93.7602 57.5707 93.9299 58.315C94.0599 58.85 94.8349 59.74 95.2149 60.25ZM98.9149 60.13C99.0099 60.545 99.1099 60.96 99.1749 61.385L99.2499 61.79C99.0394 61.4975 98.821 61.2107 98.5949 60.93C97.7749 59.96 98.4549 60.17 98.9149 60.13Z" fill="white"/>
<path d="M109.595 83.4649C107.855 85.2799 105.345 87.5149 102.615 88.5499C102.32 88.8799 103.345 90.2949 104.665 90.2949C106.88 90.0349 108.83 88.7899 110.635 85.5149C111.12 84.7549 111.97 83.1199 111.99 81.8499C112.155 74.4199 111.62 68.6349 110.505 63.2649C110.43 62.8341 110.451 62.3921 110.565 61.9699C110.705 61.7999 111.195 61.9699 111.455 61.5499C111.83 61.1599 110.45 57.9599 109.66 56.7299C109.38 56.1799 109.285 55.8099 108.82 56.7949C108.33 57.5949 108.005 58.9899 108.045 60.2899C109.1 67.6049 109.425 74.0099 110.115 81.3249C110.17 82.0299 110.065 83.0599 109.595 83.4649ZM138.745 64.9149C138.67 64.3949 138.44 63.1849 138.53 63.0299C138.67 62.6599 139.395 63.0699 139.655 62.6449C140.035 62.2599 137.785 59.3699 137 58.1399C136.715 57.5899 136.62 57.2199 136.155 58.2049C135.665 59.0049 135.495 60.4399 135.69 61.6999C136.865 69.6449 137.74 75.6149 137.92 82.6599C137.815 83.3299 137.795 83.6899 137.48 84.5299C136.785 85.4199 136.02 86.5299 135.295 87.0699C134.575 87.6049 133.04 88.1199 132.535 88.5149C130.95 89.4399 130.945 90.4949 132.235 90.5299C134.445 90.2699 137.065 90.0899 138.87 87.3599C139.355 86.5999 139.93 84.5349 139.955 83.2649C140.12 75.8349 139.86 70.2849 138.745 64.9149ZM121.99 71.0999C122.01 70.0799 122.105 68.7299 122.16 67.8849C122.185 67.5699 122.26 67.2149 122.56 67.1349C122.865 67.0549 123.405 67.4449 123.41 67.1149C123.35 66.4699 123.22 65.5099 122.855 65.0549C122.355 64.3149 121.03 64.4949 120.795 65.6549C120.8 66.0849 120.995 66.3149 120.96 66.7049C120.9 66.9249 120.67 67.0749 120.125 66.8149C120.215 66.7349 119.77 66.1199 119.77 66.1199C119.345 65.8599 118.775 66.1349 118.41 66.3699C118.279 66.6225 118.201 66.899 118.181 67.1826C118.16 67.4663 118.197 67.7511 118.29 68.0199C118.89 69.1549 120.985 71.0799 121.99 71.0999Z" fill="white"/>
<path d="M121.285 62.4049L125.75 67.8699C126.075 71.9999 126.16 75.3799 126.48 79.5099C126.435 81.2599 125.895 82.7849 125.38 83.0049C125.38 83.0049 124.605 83.4549 124.085 82.9599C123.705 82.8049 122.19 80.4349 122.19 80.4349C121.415 79.7249 120.905 79.9249 120.355 80.4349C118.835 81.8999 118.15 84.6499 117.12 86.5399C116.85 86.9649 116.1 87.3249 115.265 86.5099C113.15 83.6149 114.39 79.4999 114.13 80.5599C112.245 82.6849 113.075 86.1999 113.5 86.9599C114.12 88.1999 114.625 88.9999 115.835 89.6149C116.935 90.4249 117.795 89.915 118.265 89.35C119.375 88.195 119.39 85.27 119.91 84.68C120.27 83.615 121.195 83.7949 121.64 84.2699C122.051 84.8419 122.59 85.3095 123.215 85.635C124.25 86.55 125.485 86.7149 126.7 85.8799C127.53 85.4149 128.075 84.8099 128.56 83.6149C129.1 82.1749 128.805 75.5549 128.695 71.5849C129.47 72.5849 130.225 73.6299 130.99 74.6749C131.325 77.9899 131.515 81.2899 131.405 84.6599C131.325 85.3349 133.755 82.6599 133.735 81.3899V78.5599C134.905 80.3199 136.045 82.135 137.115 84.055C137.785 83.705 137.565 79.9299 137.14 79.4099C135.905 77.3399 134.26 75.1849 133.125 73.6449C133.05 73.4499 133.01 73.2299 132.92 73.0449C132.465 71.9899 132.75 71.1399 132.535 70.0199C132.325 68.8949 132.38 67.2149 132.055 65.8799C131.965 65.3599 131.695 63.6899 131.775 63.5349C131.905 63.1599 132.405 63.5449 132.65 63.1149C133.015 62.7149 131.385 58.4899 130.555 57.2799C130.255 56.7399 129.715 56.9249 129.045 57.8049C128.43 58.3849 128.66 59.7049 128.895 60.9599C129.48 63.9999 129.97 66.9149 130.39 69.7999C129.491 68.6046 128.582 67.4162 127.665 66.2349L127.625 66.0149C127.625 65.9599 127.49 63.3949 127.37 62.7849C127.35 62.5399 127.29 62.4649 127.55 62.4949C127.825 62.7249 127.86 62.7399 128.035 62.8199C128.315 62.8699 128.56 62.3949 128.395 61.9599L125.81 57.1999C125.605 56.9949 125.335 56.7749 125.01 57.2549C124.807 57.4303 124.645 57.6477 124.534 57.892C124.424 58.1364 124.368 58.4018 124.37 58.6699C124.45 59.7949 124.645 60.9449 124.72 62.0749L124.83 62.6849C124.715 62.5499 124.575 62.3799 124.515 62.3199C122.32 60.0099 125.525 61.9449 124.095 60.1599C122.885 58.8299 122.535 58.4149 121.495 57.6149C120.975 57.2799 120.66 56.6399 120.49 57.7299C120.41 58.686 120.385 59.646 120.415 60.6049C120.415 61.0649 120.88 61.9049 121.285 62.4049ZM76.7799 67.7999C78.0399 68.3199 78.8449 65.9199 79.3649 63.2899C79.7149 62.5499 79.9849 62.4699 80.1649 62.8499C80.1199 66.3499 80.4149 67.1249 81.3149 68.1899C83.3199 69.7399 84.9799 68.3849 85.1149 68.2549L86.6749 66.6949C87.0199 66.3299 87.4849 66.3049 87.9749 66.6299C88.4549 67.0599 88.3899 67.8099 89.4099 68.3299C90.2699 68.6749 92.1099 68.4099 92.5349 67.6699C93.1099 66.6899 93.2499 66.3499 93.5099 65.9799C93.9199 65.4349 94.6199 65.6799 94.6199 65.8499C94.5549 66.1549 94.1449 66.4599 94.4249 67.0049C94.9149 67.3699 95.0249 67.1349 95.3149 67.0549C96.3349 66.5649 97.0949 64.3549 97.0949 64.3549C97.1399 63.5299 96.6799 63.5999 96.3799 63.7699C95.9899 64.0049 95.9649 64.0849 95.5749 64.3249C95.0749 64.3999 94.1099 64.7299 93.6349 63.9899C93.1449 63.0999 93.1349 61.8599 92.7649 60.9649C92.7649 60.8999 92.1149 59.5499 92.7199 59.4649C93.0249 59.5199 93.6699 59.6899 93.7749 59.1499C94.0899 58.6199 93.0899 57.1099 92.4099 56.3449C91.8149 55.6949 90.9899 55.6149 90.1949 56.2799C89.6349 56.7949 89.7149 57.3649 89.6049 57.9099C89.5108 58.2944 89.5094 58.6956 89.6007 59.0807C89.6919 59.4657 89.8733 59.8236 90.1299 60.1249C90.6849 61.2199 91.6999 62.6349 91.3649 64.6149C91.3649 64.6149 90.7749 65.5549 89.7399 65.4349C89.3099 65.3399 88.6099 65.1549 88.2399 62.4049C87.9599 60.3199 88.3099 57.4049 87.4249 56.0399C87.1049 55.2149 86.8749 54.4199 86.0949 55.8299C85.8849 56.3849 84.9849 57.2249 85.6399 58.9599C86.1749 60.0549 86.3899 61.8399 86.1499 63.8299C85.7799 64.3949 85.6999 64.5849 85.2149 65.1499C84.5349 65.8799 83.7999 65.6949 83.2349 65.4199C82.7049 65.0649 82.2949 64.8799 82.0549 63.7499C82.0999 61.9499 82.1999 58.9999 81.8699 58.3749C81.3849 57.4049 80.5849 57.7549 80.2399 58.0499C78.5949 59.5549 77.7849 62.0899 77.2899 64.1049C76.8349 65.5749 76.3499 65.1549 76.0099 64.5599C75.1799 63.7799 75.1249 57.6949 74.1199 58.6999C72.5049 63.2699 75.0299 68.2899 76.7799 67.7999Z" fill="white"/>
<path d="M100.685 77.6199L100.205 77.3449L90.8 77.2999C90.315 77.1149 90.46 76.9549 90.8 76.8249C93.045 76.5199 97.04 75.8699 97.305 72.0349C97.26 70.0399 96.445 68.7299 93.995 68.3699C92.2 68.5099 90.915 70.2549 91.12 72.1699C91.035 72.6899 91.29 73.6999 90.765 73.8149C87.31 74.1299 83.545 76.2899 83.42 77.8399C83.21 77.9849 82.74 77.5649 82.8 76.9049C82.6324 74.0819 81.82 71.3349 80.425 68.8749C79.335 67.7849 79.675 68.1449 78.945 68.6599C78.475 69.1999 78.39 69.5699 78.415 70.6449C78.415 70.6849 79.295 73.1399 80.04 74.8599C80.535 76.6249 81 78.6399 80.665 80.5449C79.505 83.0649 77.17 85.3249 74.92 86.5499C73.76 86.9249 72.765 86.7899 72.52 86.5299C71.805 86.0499 71.84 85.1649 71.895 85.1499C73.79 83.8249 75.96 82.7599 77.66 79.1949C78.16 77.8349 78.31 77.0099 77.815 74.9049C77.681 74.1619 77.3395 73.472 76.83 72.9149C77.135 72.7149 78.01 73.3799 78.145 72.9849C77.8922 71.8324 77.3185 70.775 76.49 69.9349C75.815 69.3199 75.08 69.2499 74.46 69.8149C73.76 70.2049 73.61 71.5949 73.945 72.8149C74.315 73.7349 75.32 73.8899 76.04 75.7349C76.04 75.7749 76.3 77.1149 75.93 77.6399C75.635 78.5599 71.81 81.5649 71.6 81.6999C71.495 81.8299 71.54 81.6349 71.525 81.1349C71.5 80.5249 71.77 79.0849 71.695 79.0749C70.45 79.8799 70.035 82.3449 69.81 83.0749C66.66 85.2499 63.095 86.8699 61.035 89.0799C59.96 90.7549 68.425 87.1549 69.41 86.7199C69.63 86.8799 69.605 87.6349 70.195 88.3099C71.075 89.4999 72.935 90.2349 74.76 89.7799C77.81 88.6749 79.575 86.5949 81.365 84.2899C81.62 83.9149 82.02 83.6299 82.39 83.9149C83.62 86.6699 87.175 88.6199 91.76 88.8249C92.825 87.5299 92.31 86.9049 91.88 86.6349C91.88 86.5949 89.615 85.7349 89.27 84.8749C89.06 84.0949 89.57 83.4099 90.59 82.8899C93.535 82.5349 96.43 82.1399 99.235 81.2399C99.265 80.2999 99.81 78.8899 100.185 78.2799C100.545 77.6599 100.74 77.8449 100.685 77.6199ZM92.95 71.7599C93.09 71.5249 93.555 71.5349 93.99 71.7899C94.425 72.0449 94.67 72.4399 94.525 72.6749C94.385 72.9149 93.915 72.8999 93.48 72.6449C93.045 72.3899 92.81 71.9999 92.95 71.7599ZM89.165 81.2599C88.155 81.6049 87.185 81.8749 87.185 83.3349C87.56 85.3649 86.67 84.6699 86.145 84.3899C85.525 83.9449 83.78 82.8699 83.53 80.5499C83.49 79.9949 83.925 79.5299 84.62 79.5299C85.665 79.8149 87.21 79.8349 88.55 79.9749C89.645 80.0449 90.19 80.9049 89.165 81.2599ZM54.33 58.7349C55.41 59.2549 57.45 59.0349 57.36 57.2849C57.36 57.1299 57.32 56.6099 57.305 56.4699C57.085 55.9549 56.485 56.0799 56.345 56.6149C56.3 56.7899 56.42 57.0699 56.265 57.1599C56.175 57.2499 55.83 57.1949 55.845 56.7149C55.845 56.5599 55.73 56.3949 55.665 56.2999C55.595 56.2549 55.555 56.2399 55.43 56.2399C55.28 56.2449 55.28 56.2849 55.2 56.4149C55.165 56.5399 55.115 56.6699 55.115 56.8149C55.095 56.9849 55.03 57.0449 54.905 57.0749C54.765 57.0749 54.795 57.0899 54.685 57.0149C54.615 56.9399 54.53 56.9099 54.53 56.7849C54.5277 56.6389 54.5041 56.4941 54.46 56.3549C54.3966 56.2816 54.3083 56.2332 54.195 56.2099C53.605 56.2099 53.565 56.8849 53.6 57.1449C53.545 57.1899 53.525 58.3999 54.33 58.7349Z" fill="white"/>
<path d="M87.5598 70.135C87.5598 69.98 87.4448 69.82 87.3798 69.72C87.3098 69.675 87.2698 69.66 87.1448 69.66C86.9948 69.665 86.9998 69.705 86.9148 69.835C86.8798 69.965 86.8298 70.09 86.8298 70.235C86.8148 70.41 86.7448 70.47 86.6198 70.495C86.4798 70.495 86.5098 70.51 86.3948 70.44C86.3248 70.365 86.2398 70.335 86.2398 70.21C86.2375 70.064 86.214 69.9191 86.1698 69.78C86.1065 69.7066 86.0182 69.66 85.9048 69.64C85.3148 69.64 85.2748 70.315 85.3048 70.57C85.2598 70.62 85.2348 71.825 86.0398 72.165C87.1248 72.68 89.6998 72.38 89.0698 70.715C89.059 70.4412 89.0406 70.1677 89.0148 69.895C88.7948 69.38 88.1898 69.51 88.0548 70.04C88.0148 70.215 88.1348 70.495 87.9748 70.585C87.8948 70.675 87.5448 70.62 87.5598 70.135ZM104.545 66.6C105.625 67.12 107.66 66.9 107.57 65.155C107.559 64.8812 107.541 64.6077 107.515 64.335C107.295 63.82 106.695 63.95 106.56 64.48C106.515 64.655 106.635 64.935 106.475 65.025C106.385 65.115 106.04 65.065 106.055 64.58C106.055 64.425 105.94 64.26 105.875 64.165C105.805 64.12 105.765 64.105 105.635 64.105C105.485 64.115 105.49 64.15 105.405 64.28C105.37 64.41 105.32 64.535 105.32 64.68C105.3 64.855 105.235 64.915 105.11 64.94C104.97 64.94 105 64.955 104.885 64.885C104.815 64.81 104.735 64.78 104.735 64.655C104.733 64.5073 104.709 64.3607 104.665 64.22C104.598 64.1466 104.508 64.1 104.395 64.08C103.805 64.08 103.765 64.755 103.8 65.01C103.765 65.06 103.74 66.265 104.545 66.6ZM105.275 59.84C105.66 60.92 104.98 61.95 105.385 62.1C105.75 62.27 106.27 60.985 106.46 59.8C106.685 58.84 106 56.875 105.03 56.47C104.44 56.33 103.6 56.68 103.87 57.47C103.735 57.85 105.06 59.14 105.275 59.84ZM115.25 85.16C116.005 85.165 116.875 83.435 117.245 81.72C117.45 79.36 117.105 77.925 117.045 76.535C116.985 75.145 115.48 64.575 115.17 63.525C114.805 61.54 116.635 63.26 116.435 62.105C115.8 60.65 114.225 58.535 113.725 57.27C113.425 56.73 113.555 56.25 112.885 57.13C112.27 59.155 112.055 60.805 112.29 62.065C113.88 70.365 115.51 77.265 115.25 85.16ZM134.03 63.46C134.205 64 133.765 65.745 134.13 65.905C134.465 66.085 134.935 64.7 135.11 63.415C135.205 62.71 134.69 60.25 133.805 59.81C133.265 59.66 132.5 60.035 132.75 60.895C132.625 61.31 133.835 62.7 134.03 63.46ZM68.4348 81.74C68.7598 81.875 69.2048 80.855 69.3748 79.91C69.4698 79.39 68.9698 77.585 68.1248 77.26C67.6048 77.15 66.8948 77.29 67.1148 78.06C67.0898 78.475 68.2648 78.975 68.3348 79.94C68.5048 80.34 68.0848 81.625 68.4348 81.74ZM45.6548 58.665C45.8198 59.08 45.4898 60.405 45.8348 60.53C46.1498 60.67 46.5948 59.61 46.7598 58.635C46.8548 58.095 46.7798 56.265 45.5298 55.89C45.0148 55.775 44.2998 56.06 44.5348 56.715C44.4148 57.025 45.4698 58.085 45.6548 58.665ZM70.1648 64.53C69.2098 65.05 68.8348 66.59 69.4348 67.485C69.9898 68.28 70.8698 67.985 70.9898 67.985C71.9298 68.1 72.4848 66.225 72.4848 66.225C72.4848 66.225 72.5148 65.7 71.3998 66.695C70.9298 66.785 70.8698 66.61 70.7548 66.34C70.6425 65.8505 70.6934 65.3377 70.8998 64.88C71.0598 64.415 70.6998 64.21 70.1648 64.53ZM77.3748 58.765C77.5283 58.669 77.6601 58.5421 77.7617 58.3923C77.8633 58.2424 77.9325 58.0731 77.9648 57.895C78.1098 57.165 77.1898 58.24 77.0748 57.425C76.8698 56.67 77.4598 56.36 78.0198 55.63C78.0398 55.125 78.0298 54.77 77.3448 55.18C76.8648 55.505 75.9048 56.495 75.8748 57.635C75.8448 58.28 75.7248 58.275 76.1498 58.685C76.4548 59.13 76.7598 59.085 77.3748 58.765ZM83.8698 59.155C84.4898 57.475 84.4898 56.765 84.5348 56.05C84.3448 54.965 83.6098 55 83.1248 56.205C82.9148 56.66 82.6698 59.055 82.7098 59.055C82.5448 59.77 83.4548 60.075 83.8698 59.155ZM124.72 71.07C124.72 71.07 119.705 74.635 119.585 74.76C119.085 75.2 119.335 76.76 119.585 76.58C119.94 76.72 124.985 73.295 124.885 72.895C125.12 72.905 125.235 70.89 124.72 71.07ZM124.105 80.74C124.44 80.92 125.325 79.825 125.29 78.46C125.39 77.755 125.035 75.17 124.155 74.73C123.615 74.58 122.895 75.04 123.145 75.895C123.02 76.305 123.765 77.74 123.96 78.5C124.135 79.045 123.74 80.58 124.105 80.74ZM95.7048 88.22C95.7048 88.265 96.1298 88.63 96.6298 88.34C97.6798 87.935 98.3398 87.545 99.8098 87.22C100.195 87.215 100.17 86.18 99.5598 86.145C98.7648 86.185 98.0248 86.225 97.2298 86.855C96.7398 86.965 96.6598 86.67 96.5498 86.4C96.4298 85.735 96.8248 85.275 96.7398 84.78C96.7698 84.81 96.2848 84.365 95.7898 84.615C95.7648 84.615 94.6848 85.345 94.3398 85.855C94.1248 86.02 94.1498 86.16 94.2148 86.435C94.3798 86.815 94.6748 86.7 95.0048 86.52C95.4448 86.46 95.6548 86.75 95.6198 87.275C95.4098 87.94 95.7048 88.185 95.7048 88.22ZM128.46 89.05C128.295 89.335 128.185 89.765 128.695 89.9C129.635 90.165 131.8 88.755 131.8 88.73C132.15 88.465 132.035 87.97 132.005 87.97C131.8 87.735 131.34 87.87 131.03 87.835C130.885 87.835 130.395 87.76 130.63 87.33C130.795 87.0981 130.926 86.8439 131.02 86.575C131.165 86.25 131.04 86.035 130.51 85.86C129.975 85.76 129.76 85.81 129.165 85.86C128.845 85.93 128.735 86.07 128.675 86.46C128.7 87.05 129.055 87.02 129.425 87.255C129.64 87.53 129.78 87.78 129.41 88.225C129.06 88.55 128.815 88.73 128.46 89.05ZM127.5 115H120V112.5C120 111.837 119.736 111.201 119.268 110.732C118.799 110.263 118.163 110 117.5 110C116.837 110 116.201 110.263 115.732 110.732C115.263 111.201 115 111.837 115 112.5V115H54.9998C54.9998 115 54.9998 120 69.9998 120H115V122.5C115 123.163 115.263 123.799 115.732 124.268C116.201 124.737 116.837 125 117.5 125C118.163 125 118.799 124.737 119.268 124.268C119.736 123.799 120 123.163 120 122.5V120H125V122.5C125 123.163 125.263 123.799 125.732 124.268C126.201 124.737 126.837 125 127.5 125C128.163 125 128.799 124.737 129.268 124.268C129.736 123.799 130 123.163 130 122.5V117.5C130 116.837 129.736 116.201 129.268 115.732C128.799 115.263 128.163 115 127.5 115Z" fill="white"/>
</g>
<defs>
<clipPath id="clip0_142_2395">
<rect width="180" height="180" fill="white"/>
</clipPath>
</defs>
</svg>
