<svg width="180" height="180" viewBox="0 0 180 180" fill="none" xmlns="http://www.w3.org/2000/svg">
<path d="M151.875 154.688H28.125C9.48656 154.688 0 140.836 0 123.75V92.8125H180V123.75C180 140.836 170.513 154.688 151.875 154.688Z" fill="#E6E7E8"/>
<path d="M0 61.875C0 44.7891 9.48656 30.9375 28.125 30.9375H151.875C170.513 30.9375 180 44.7891 180 61.875V92.8125H0V61.875Z" fill="#EC1C24"/>
<path d="M30.4482 62.2124C30.4477 56.5358 32.6421 51.0789 36.5724 46.9829C40.5027 42.887 45.8645 40.4693 51.5363 40.2356C48.027 39.0085 44.2749 38.6397 40.5939 39.1601C36.9129 39.6805 33.4101 41.0749 30.3785 43.2267C27.3469 45.3784 24.8748 48.225 23.1689 51.5281C21.4631 54.8312 20.5731 58.4948 20.5735 62.2124C20.5727 65.27 21.1743 68.2977 22.3439 71.1227C23.5134 73.9477 25.228 76.5146 27.3898 78.6769C29.5515 80.8391 32.118 82.5543 34.9427 83.7246C37.7675 84.8948 40.795 85.4971 43.8526 85.4971C46.5441 85.4971 49.1344 85.0443 51.5363 84.1978C45.863 83.9639 40.5 81.5451 36.5695 77.4473C32.639 73.3496 30.4455 67.8905 30.4482 62.2124Z" fill="white"/>
<path d="M61.678 47.115L57.3383 47.1207L55.9883 42.7275L54.6524 47.1207L50.3043 47.115L53.8311 49.7897L52.4587 54.1547L55.994 51.4435L59.5405 54.1547L58.1652 49.7897L61.678 47.115ZM74.0755 56.3344H69.7358L68.3858 51.9385L67.0499 56.3344H62.7018L66.223 59.0007L64.8562 63.3628L68.3915 60.6516L71.9296 63.3628L70.5655 59.0007L74.0755 56.3344ZM69.4349 71.0719H65.0811L63.7452 66.676L62.4093 71.0719H58.0611L61.5824 73.7438L60.2155 78.1032L63.7508 75.3919L67.289 78.1032L65.9193 73.7438L69.4349 71.0719ZM53.8874 71.0719H49.559L48.2061 66.676L46.873 71.0719H42.5249L46.0462 73.7438L44.6821 78.1032L48.2061 75.3919L51.7527 78.1032L50.3858 73.7438L53.8874 71.0719ZM49.258 56.3344H44.9183L43.5683 51.9385L42.2437 56.3344H37.8843L41.4055 59.0007L40.0387 63.3628L43.574 60.6516L47.1121 63.3628L45.7452 59.0007L49.258 56.3344Z" fill="white"/>
</svg>
